<?xml version="1.0" standalone="no"?>
<!DOCTYPE svg PUBLIC "-//W3C//DTD SVG 20010904//EN"
 "http://www.w3.org/TR/2001/REC-SVG-20010904/DTD/svg10.dtd">
<svg version="1.0" xmlns="http://www.w3.org/2000/svg"
 width="1200.000000pt" height="627.000000pt" viewBox="0 0 1200.000000 627.000000"
 preserveAspectRatio="xMidYMid meet">

<g transform="translate(0.000000,627.000000) scale(0.100000,-0.100000)"
fill="#000000" stroke="none">
<path d="M0 3135 l0 -3135 6000 0 6000 0 0 3135 0 3135 -6000 0 -6000 0 0
-3135z m6268 601 l75 -169 -177 -175 -176 -175 -46 99 c-134 286 -266 570
-271 582 -4 10 48 12 258 10 l262 -3 75 -169z m1429 -236 c62 -223 113 -414
115 -425 1 -13 -52 -88 -151 -213 -85 -105 -156 -192 -160 -192 -3 0 -28 82
-55 182 -40 147 -51 177 -57 154 -4 -15 -31 -169 -60 -342 l-52 -314 -441 2
-440 3 -81 180 c-44 100 -85 191 -91 205 -10 22 -20 11 -175 -183 l-164 -206
-259 -1 -260 0 26 28 c25 27 1059 1289 1187 1449 l66 82 470 -2 469 -2 113
-405z m1149 383 c-3 -16 -44 -255 -91 -533 -47 -278 -104 -616 -127 -752 l-42
-248 -216 0 -216 0 57 338 c32 185 58 348 59 361 0 16 -58 -70 -157 -232
l-158 -257 -212 0 c-117 0 -213 2 -213 5 0 2 102 165 227 362 279 441 494 780
567 896 l56 87 236 0 236 0 -6 -27z"/>
<path d="M6834 3498 c-137 -166 -255 -310 -262 -320 -12 -16 5 -59 140 -359
142 -317 153 -338 160 -306 16 79 218 1281 215 1283 -2 2 -115 -132 -253 -298z"/>
</g>
</svg>
